<svg width="19" height="19" viewBox="0 0 19 19" fill="none" xmlns="http://www.w3.org/2000/svg">
    <path d="M10 1.375C7.15234 1.375 4.58594 2.88672 3.17969 5.3125C1.73828 7.77344 1.73828 10.7617 3.17969 13.1875C4.58594 15.6484 7.15234 17.125 10 17.125C12.8125 17.125 15.3789 15.6484 16.7852 13.1875C18.2266 10.7617 18.2266 7.77344 16.7852 5.3125C15.3789 2.88672 12.8125 1.375 10 1.375ZM10 18.25C6.76562 18.25 3.8125 16.5625 2.19531 13.75C0.578125 10.9727 0.578125 7.5625 2.19531 4.75C3.8125 1.97266 6.76562 0.25 10 0.25C13.1992 0.25 16.1523 1.97266 17.7695 4.75C19.3867 7.5625 19.3867 10.9727 17.7695 13.75C16.1523 16.5625 13.1992 18.25 10 18.25ZM7.32812 6.61328C7.53906 6.40234 7.92578 6.40234 8.13672 6.61328L10 8.47656L11.8281 6.61328C12.0391 6.40234 12.4258 6.40234 12.6367 6.61328C12.8477 6.82422 12.8477 7.21094 12.6367 7.42188L10.7734 9.25L12.6367 11.1133C12.8477 11.3242 12.8477 11.7109 12.6367 11.9219C12.4258 12.1328 12.0391 12.1328 11.8281 11.9219L10 10.0586L8.13672 11.9219C7.92578 12.1328 7.53906 12.1328 7.32812 11.9219C7.11719 11.7109 7.11719 11.3242 7.32812 11.1133L9.19141 9.25L7.32812 7.42188C7.11719 7.21094 7.11719 6.82422 7.32812 6.61328Z" fill="#233548"/>
    </svg>    